<svg width="121" height="14" viewBox="0 0 121 14" fill="none" xmlns="http://www.w3.org/2000/svg">
<path d="M4.46387 5.59277H7.28027V6.53613H4.46387V9.44824H3.51367V6.53613H0.710938V5.59277H3.51367V2.66699H4.46387V5.59277ZM9.95996 11L14.1025 2.05176H8.6543V1.00586H15.3057V1.91504L11.2178 11H9.95996ZM20.2207 7.16504C20.2207 5.95736 20.3962 4.82715 20.7471 3.77441C21.1025 2.72168 21.613 1.79883 22.2783 1.00586H23.3857C22.7295 1.88542 22.235 2.85156 21.9023 3.9043C21.5742 4.95703 21.4102 6.03939 21.4102 7.15137C21.4102 8.24512 21.5788 9.3138 21.916 10.3574C22.2533 11.401 22.7386 12.3535 23.3721 13.2148H22.2783C21.6084 12.4401 21.098 11.5355 20.7471 10.501C20.3962 9.46647 20.2207 8.35449 20.2207 7.16504ZM31.5273 8.70312H30.0439V11H28.957V8.70312H24.0967V7.71191L28.8408 0.951172H30.0439V7.6709H31.5273V8.70312ZM28.957 7.6709V4.34863C28.957 3.69694 28.9798 2.96094 29.0254 2.14062H28.9707C28.752 2.57812 28.5469 2.94043 28.3555 3.22754L25.2314 7.6709H28.957ZM39.0674 5.27148C39.0674 9.18164 37.5544 11.1367 34.5283 11.1367C33.9997 11.1367 33.5804 11.0911 33.2705 11V10.0225C33.6351 10.141 34.0498 10.2002 34.5146 10.2002C35.6084 10.2002 36.4333 9.86296 36.9893 9.18848C37.5498 8.50944 37.8551 7.47038 37.9053 6.07129H37.8232C37.5726 6.44954 37.2399 6.73893 36.8252 6.93945C36.4105 7.13542 35.9434 7.2334 35.4238 7.2334C34.5397 7.2334 33.8379 6.96908 33.3184 6.44043C32.7988 5.91178 32.5391 5.1735 32.5391 4.22559C32.5391 3.18652 32.8285 2.36621 33.4072 1.76465C33.9906 1.16309 34.7562 0.862305 35.7041 0.862305C36.3831 0.862305 36.9756 1.03776 37.4814 1.38867C37.9919 1.73503 38.3838 2.24316 38.6572 2.91309C38.9307 3.57845 39.0674 4.36458 39.0674 5.27148ZM35.7041 1.83301C35.0524 1.83301 34.5488 2.04264 34.1934 2.46191C33.8379 2.88118 33.6602 3.46452 33.6602 4.21191C33.6602 4.86816 33.8242 5.38542 34.1523 5.76367C34.4805 6.13737 34.9795 6.32422 35.6494 6.32422C36.0641 6.32422 36.4447 6.23991 36.791 6.07129C37.1419 5.90267 37.4176 5.67253 37.6182 5.38086C37.8187 5.08919 37.9189 4.78385 37.9189 4.46484C37.9189 3.98633 37.8255 3.54427 37.6387 3.13867C37.4518 2.73307 37.1898 2.41406 36.8525 2.18164C36.5199 1.94922 36.137 1.83301 35.7041 1.83301ZM43.6338 4.89551C44.6865 4.89551 45.5137 5.15755 46.1152 5.68164C46.7214 6.20117 47.0244 6.91439 47.0244 7.82129C47.0244 8.85579 46.694 9.66699 46.0332 10.2549C45.377 10.8428 44.4701 11.1367 43.3125 11.1367C42.1868 11.1367 41.3278 10.9567 40.7354 10.5967V9.50293C41.0544 9.70801 41.4508 9.86979 41.9248 9.98828C42.3988 10.1022 42.8659 10.1592 43.3262 10.1592C44.1283 10.1592 44.7503 9.97005 45.1924 9.5918C45.639 9.21354 45.8623 8.66667 45.8623 7.95117C45.8623 6.55664 45.0078 5.85938 43.2988 5.85938C42.8659 5.85938 42.2871 5.92546 41.5625 6.05762L40.9746 5.68164L41.3506 1.00586H46.3203V2.05176H42.3213L42.0684 5.05273C42.5924 4.94792 43.1143 4.89551 43.6338 4.89551ZM51.4199 7.16504C51.4199 8.36361 51.2422 9.48014 50.8867 10.5146C50.5358 11.5492 50.0277 12.4492 49.3623 13.2148H48.2686C48.902 12.3581 49.3874 11.4079 49.7246 10.3643C50.0618 9.31608 50.2305 8.24512 50.2305 7.15137C50.2305 6.03939 50.0641 4.95703 49.7314 3.9043C49.4033 2.85156 48.9111 1.88542 48.2549 1.00586H49.3623C50.0322 1.80339 50.5426 2.73079 50.8936 3.78809C51.2445 4.84082 51.4199 5.96647 51.4199 7.16504ZM59.6094 0.862305C60.5208 0.862305 61.2432 1.07422 61.7764 1.49805C62.3096 1.92188 62.5762 2.50749 62.5762 3.25488C62.5762 3.74707 62.4235 4.19596 62.1182 4.60156C61.8128 5.00716 61.3252 5.3763 60.6553 5.70898C61.4665 6.09635 62.043 6.50423 62.3848 6.93262C62.7266 7.35645 62.8975 7.84863 62.8975 8.40918C62.8975 9.23861 62.6081 9.90169 62.0293 10.3984C61.4505 10.8906 60.6576 11.1367 59.6504 11.1367C58.584 11.1367 57.7637 10.9043 57.1895 10.4395C56.6152 9.97005 56.3281 9.30697 56.3281 8.4502C56.3281 7.30632 57.0254 6.41536 58.4199 5.77734C57.791 5.42188 57.3398 5.03906 57.0664 4.62891C56.793 4.21419 56.6562 3.75163 56.6562 3.24121C56.6562 2.5166 56.9229 1.9401 57.4561 1.51172C57.9938 1.07878 58.7116 0.862305 59.6094 0.862305ZM57.4492 8.47754C57.4492 9.02441 57.6383 9.45052 58.0166 9.75586C58.3994 10.0612 58.9349 10.2139 59.623 10.2139C60.3021 10.2139 60.8307 10.0544 61.209 9.73535C61.5872 9.41634 61.7764 8.97884 61.7764 8.42285C61.7764 7.98079 61.5986 7.58887 61.2432 7.24707C60.8877 6.90072 60.2679 6.56576 59.3838 6.24219C58.7048 6.53385 58.2126 6.85742 57.9072 7.21289C57.6019 7.5638 57.4492 7.98535 57.4492 8.47754ZM59.5957 1.78516C59.026 1.78516 58.5794 1.92188 58.2559 2.19531C57.9323 2.46875 57.7705 2.83333 57.7705 3.28906C57.7705 3.70833 57.9049 4.06836 58.1738 4.36914C58.4427 4.66992 58.9395 4.9707 59.6641 5.27148C60.3158 4.99805 60.776 4.7041 61.0449 4.38965C61.3184 4.0752 61.4551 3.70833 61.4551 3.28906C61.4551 2.82878 61.2887 2.46419 60.9561 2.19531C60.6279 1.92188 60.1745 1.78516 59.5957 1.78516ZM67.6211 0.862305C68.5326 0.862305 69.2549 1.07422 69.7881 1.49805C70.3213 1.92188 70.5879 2.50749 70.5879 3.25488C70.5879 3.74707 70.4352 4.19596 70.1299 4.60156C69.8245 5.00716 69.3369 5.3763 68.667 5.70898C69.4782 6.09635 70.0547 6.50423 70.3965 6.93262C70.7383 7.35645 70.9092 7.84863 70.9092 8.40918C70.9092 9.23861 70.6198 9.90169 70.041 10.3984C69.4622 10.8906 68.6693 11.1367 67.6621 11.1367C66.5957 11.1367 65.7754 10.9043 65.2012 10.4395C64.627 9.97005 64.3398 9.30697 64.3398 8.4502C64.3398 7.30632 65.0371 6.41536 66.4316 5.77734C65.8027 5.42188 65.3516 5.03906 65.0781 4.62891C64.8047 4.21419 64.668 3.75163 64.668 3.24121C64.668 2.5166 64.9346 1.9401 65.4678 1.51172C66.0055 1.07878 66.7233 0.862305 67.6211 0.862305ZM65.4609 8.47754C65.4609 9.02441 65.6501 9.45052 66.0283 9.75586C66.4111 10.0612 66.9466 10.2139 67.6348 10.2139C68.3138 10.2139 68.8424 10.0544 69.2207 9.73535C69.599 9.41634 69.7881 8.97884 69.7881 8.42285C69.7881 7.98079 69.6104 7.58887 69.2549 7.24707C68.8994 6.90072 68.2796 6.56576 67.3955 6.24219C66.7165 6.53385 66.2243 6.85742 65.9189 7.21289C65.6136 7.5638 65.4609 7.98535 65.4609 8.47754ZM67.6074 1.78516C67.0378 1.78516 66.5911 1.92188 66.2676 2.19531C65.944 2.46875 65.7822 2.83333 65.7822 3.28906C65.7822 3.70833 65.9167 4.06836 66.1855 4.36914C66.4544 4.66992 66.9512 4.9707 67.6758 5.27148C68.3275 4.99805 68.7878 4.7041 69.0566 4.38965C69.3301 4.0752 69.4668 3.70833 69.4668 3.28906C69.4668 2.82878 69.3005 2.46419 68.9678 2.19531C68.6396 1.92188 68.1862 1.78516 67.6074 1.78516ZM75.4482 4.89551C76.501 4.89551 77.3281 5.15755 77.9297 5.68164C78.5358 6.20117 78.8389 6.91439 78.8389 7.82129C78.8389 8.85579 78.5085 9.66699 77.8477 10.2549C77.1914 10.8428 76.2845 11.1367 75.127 11.1367C74.0013 11.1367 73.1423 10.9567 72.5498 10.5967V9.50293C72.8688 9.70801 73.2653 9.86979 73.7393 9.98828C74.2132 10.1022 74.6803 10.1592 75.1406 10.1592C75.9427 10.1592 76.5648 9.97005 77.0068 9.5918C77.4535 9.21354 77.6768 8.66667 77.6768 7.95117C77.6768 6.55664 76.8223 5.85938 75.1133 5.85938C74.6803 5.85938 74.1016 5.92546 73.377 6.05762L72.7891 5.68164L73.165 1.00586H78.1348V2.05176H74.1357L73.8828 5.05273C74.4069 4.94792 74.9287 4.89551 75.4482 4.89551ZM80.2266 7.7666V6.72754H83.583V7.7666H80.2266ZM91.8887 8.70312H90.4053V11H89.3184V8.70312H84.458V7.71191L89.2021 0.951172H90.4053V7.6709H91.8887V8.70312ZM89.3184 7.6709V4.34863C89.3184 3.69694 89.3411 2.96094 89.3867 2.14062H89.332C89.1133 2.57812 88.9082 2.94043 88.7168 3.22754L85.5928 7.6709H89.3184ZM95.9834 4.89551C97.0361 4.89551 97.8633 5.15755 98.4648 5.68164C99.071 6.20117 99.374 6.91439 99.374 7.82129C99.374 8.85579 99.0436 9.66699 98.3828 10.2549C97.7266 10.8428 96.8197 11.1367 95.6621 11.1367C94.5365 11.1367 93.6774 10.9567 93.085 10.5967V9.50293C93.404 9.70801 93.8005 9.86979 94.2744 9.98828C94.7484 10.1022 95.2155 10.1592 95.6758 10.1592C96.4779 10.1592 97.0999 9.97005 97.542 9.5918C97.9886 9.21354 98.2119 8.66667 98.2119 7.95117C98.2119 6.55664 97.3574 5.85938 95.6484 5.85938C95.2155 5.85938 94.6367 5.92546 93.9121 6.05762L93.3242 5.68164L93.7002 1.00586H98.6699V2.05176H94.6709L94.418 5.05273C94.9421 4.94792 95.4639 4.89551 95.9834 4.89551ZM100.762 7.7666V6.72754H104.118V7.7666H100.762ZM112.424 8.70312H110.94V11H109.854V8.70312H104.993V7.71191L109.737 0.951172H110.94V7.6709H112.424V8.70312ZM109.854 7.6709V4.34863C109.854 3.69694 109.876 2.96094 109.922 2.14062H109.867C109.648 2.57812 109.443 2.94043 109.252 3.22754L106.128 7.6709H109.854ZM114.659 11L118.802 2.05176H113.354V1.00586H120.005V1.91504L115.917 11H114.659Z" fill="#FF862F"/>
</svg>
